<svg width="50" height="58" viewBox="0 0 50 58" fill="none" xmlns="http://www.w3.org/2000/svg">
<path d="M1.24 12.68V3.032L5.416 0.619998H13.804L17.98 3.032V6.74H14.38V3.86H4.84V11.492H13.804L17.98 13.904V23.768L13.804 26.18H5.056L0.88 23.768V20.06H4.48V22.94H14.38V15.092H5.416L1.24 12.68Z" fill="#F78AFA"/>
<path d="M31.6431 14.66V26H28.0431V0.799998H31.6431V11.42H43.7031V0.799998H47.3031V26H43.7031V14.66H31.6431ZM43.8859 58V52.6H49.2859V58H43.8859ZM45.1459 48.352L44.2099 31.72H48.9619L48.0259 48.352H45.1459Z" fill="#00FFCC"/>
<path d="M4.84 46.66V58H1.24V32.8H4.84V43.42H16.9V32.8H20.5V58H16.9V46.66H4.84Z" fill="#A1BDFF"/>
</svg>
